# xmcd CD database file
#
# Track frame offsets:
#	150
#	20622
#	38002
#
# Disc length: 779 seconds
#
# Revision: 1
# Processed by: cddbd v1.5.2PL0 Copyright (c) Steve Scherf et al.
# Submitted via: CDex 1.70beta2
#
DISCID=1a030903
DTITLE=T&Cボンバー - HEY！真夏の蜃気楼
DYEAR=2000
DGENRE=JPop
TTITLE0=HEY！真夏の蜃気楼
TTITLE1=かわいい男性
TTITLE2=HEY！真夏の蜃気楼(Instrumental)
EXTD=YEAR: 2000
EXTT0=
EXTT1=
EXTT2=
PLAYORDER=
